PathFileType  4	(X/Y/Z) C:\Users\antoi\Documents\MyRepositories\mobilecap\ResultsAnalysis
DataRate	CameraRate	NumFrames	NumMarkers	Units	OrigDataRate	OrigDataStartFrame	OrigNumFrames
100.0	100.0	7	51	mm	100.0	119	135
Frame#	Time	r_knee			r_shank_antsup			r_ankle			r_calc			r_5meta			r_toe			L_knee			L_shank_antsup			L_ankle			L_calc			L_5meta			L_toe			r_sh2			r_sh3			r_sh4			L_sh2			L_sh3			r_thigh1			r_thigh2			r_thigh3			r_thigh4			r_thigh5			L_thigh1			L_thigh2			L_thigh3			L_thigh4			r.ASIS			r.PSIS			L.ASIS			L.PSIS			C7			R_Shoulder			L_Shoulder			R_Sternum			L_Sternum			R_humerus			R_elbow_med			R_elbow_lat			R_forearm			R_wrist_radius			R_wrist_ulna			L_humerus			L_elbow_med			L_elbow_lat			L_forearm			L_wrist_radius			L_wrist_ulna			R_HJC			L_HJC			R_HJC_reg			L_HJC_reg			
		X1	Y1	Z1	X2	Y2	Z2	X3	Y3	Z3	X4	Y4	Z4	X5	Y5	Z5	X6	Y6	Z6	X7	Y7	Z7	X8	Y8	Z8	X9	Y9	Z9	X10	Y10	Z10	X11	Y11	Z11	X12	Y12	Z12	X13	Y13	Z13	X14	Y14	Z14	X15	Y15	Z15	X16	Y16	Z16	X17	Y17	Z17	X18	Y18	Z18	X19	Y19	Z19	X20	Y20	Z20	X21	Y21	Z21	X22	Y22	Z22	X23	Y23	Z23	X24	Y24	Z24	X25	Y25	Z25	X26	Y26	Z26	X27	Y27	Z27	X28	Y28	Z28	X29	Y29	Z29	X30	Y30	Z30	X31	Y31	Z31	X32	Y32	Z32	X33	Y33	Z33	X34	Y34	Z34	X35	Y35	Z35	X36	Y36	Z36	X37	Y37	Z37	X38	Y38	Z38	X39	Y39	Z39	X40	Y40	Z40	X41	Y41	Z41	X42	Y42	Z42	X43	Y43	Z43	X44	Y44	Z44	X45	Y45	Z45	X46	Y46	Z46	X47	Y47	Z47	X48	Y48	Z48	X49	Y49	Z49	X50	Y50	Z50	X51	Y51	Z51	

119	1.18000000	1439.85081	491.83251	-34.05565	1492.00808	435.11997	-54.37932	1495.65707	92.18723	-72.25712	1434.91809	63.22442	-117.71614	1603.37151	45.36757	-41.05509	1652.11945	81.66910	-91.95544	1178.37687	476.71095	-299.73677	1152.70479	378.29456	-307.42629	928.57436	163.08471	-265.61381	854.59555	158.06880	-212.10204	976.94379	50.45282	-312.51417	1035.01977	55.45865	-265.54022	1493.68978	319.42795	-35.62972	1413.54047	428.90992	-25.51153	1418.59568	315.99334	-29.35208	1086.48884	438.97071	-302.29784	1014.49020	339.68392	-301.51393	1397.03205	811.10222	2.46397	1428.28174	701.14905	-8.52327	1327.35026	666.21970	12.11624	1290.82718	776.88901	23.68817	1383.21685	664.39363	22.71530	1275.48033	727.00494	-355.28175	1252.80200	593.40369	-328.03737	1172.34126	749.34327	-307.97433	1154.38117	611.50661	-286.80984	1381.27961	951.16635	-45.84999	1190.89671	990.86715	-115.86104	1381.60721	915.57785	-292.04747	1181.96761	989.10119	-217.00412	1188.86331	1385.06483	-208.53986	1275.59721	1361.08492	-18.26755	1297.08713	1358.88186	-375.25068	1329.44646	1368.26313	-171.96940	1338.32492	1368.82860	-213.23837	1274.06996	1227.74124	48.63366	1228.34177	1013.53936	5.35749	1229.73407	1035.33801	75.24348	1291.59688	918.22765	121.41456	1319.63497	786.29502	149.16706	1286.41089	782.59468	163.33743	1357.28779	1256.20127	-428.69505	1412.70827	1022.46415	-376.24170	1426.26029	1056.18279	-450.09202	1538.97320	1055.21188	-425.51665	1689.18638	1012.91584	-404.62961	1681.73623	989.49928	-429.12670	1300.82087	873.31034	-55.65028	1293.62116	852.21202	-260.91917	1313.75692	864.32732	-72.02119	1299.32388	861.47750	-235.53789	
120	1.19000000	1450.78615	492.32815	-33.38648	1501.95788	434.34872	-54.25964	1497.37488	91.84512	-72.81281	1435.89165	63.78062	-118.17929	1604.08442	43.93767	-41.10063	1653.74165	78.57158	-92.45605	1198.23623	475.67479	-300.77281	1169.95993	378.01354	-308.65582	939.12209	170.74431	-267.09511	866.03059	170.91322	-213.30496	979.91510	53.86498	-312.57691	1038.46510	55.65499	-266.04094	1501.41984	318.59822	-35.91873	1423.64394	429.66029	-24.79458	1426.39775	316.71278	-28.80590	1105.85772	440.85794	-302.91169	1030.52866	344.17959	-302.33956	1410.30683	812.14311	4.10921	1440.53782	701.92486	-7.60245	1339.73277	667.44357	13.81554	1304.00801	778.46634	25.63819	1395.77388	665.49623	24.07979	1291.39049	727.46534	-353.69524	1271.02895	593.18069	-327.92692	1187.94276	747.65407	-305.82736	1172.53950	609.31486	-286.07752	1395.11499	952.82872	-44.54137	1204.48749	992.00226	-113.84464	1395.27851	916.68414	-290.14273	1195.31299	989.69766	-214.96171	1201.68425	1385.75255	-206.56319	1288.89398	1361.81299	-16.51472	1309.41233	1360.00697	-373.51998	1342.36458	1369.32937	-170.30127	1350.97569	1369.90769	-211.59282	1287.74459	1228.33806	50.11513	1242.34388	1014.16444	6.37558	1243.83372	1035.76545	76.30461	1305.99719	918.65586	122.07725	1334.22404	786.58560	149.38328	1301.23185	782.94405	163.67565	1368.22636	1256.27311	-427.15333	1419.36658	1021.54334	-374.16755	1432.63916	1054.61785	-448.41887	1545.33675	1053.37239	-423.85543	1695.42511	1010.95381	-402.70339	1687.95898	987.51027	-427.14519	1314.93796	874.77854	-53.63598	1307.35785	853.12124	-258.83567	1327.80120	866.30756	-70.06117	1313.00198	862.59345	-233.18916	
121	1.20000000	1461.23855	492.81642	-32.78819	1511.45790	433.58420	-54.09771	1498.63868	91.67016	-73.37910	1436.56664	64.15599	-118.51808	1604.63063	43.07203	-41.18770	1654.92347	76.19559	-93.06332	1219.16275	474.44727	-302.17682	1188.40679	377.71079	-310.17066	951.14621	178.64982	-268.85588	879.52698	184.50885	-214.60356	983.49803	58.02675	-312.61747	1042.25756	56.23158	-266.59129	1508.58502	317.82016	-36.22077	1433.23374	430.46730	-24.32241	1433.63337	317.54151	-28.55649	1126.51152	442.66384	-303.80168	1047.90113	348.69662	-303.32797	1423.46842	813.14829	5.72862	1452.69153	702.66157	-6.46171	1351.76338	668.70119	15.31513	1317.00193	780.12281	27.48340	1407.96128	666.58185	25.39116	1307.74410	727.91980	-352.24439	1290.04941	592.94205	-328.04698	1203.98025	745.64881	-303.85883	1191.42685	606.82497	-285.71883	1408.73069	954.39044	-43.02719	1217.89804	993.18925	-111.87804	1408.71690	917.91181	-288.19040	1208.52549	990.37882	-212.97737	1214.44900	1386.55870	-204.52108	1302.26522	1362.69548	-14.75402	1321.48384	1361.12119	-371.80734	1355.20601	1370.47704	-168.67799	1363.53373	1371.06445	-209.99638	1301.55814	1229.08562	51.61383	1256.44367	1014.94674	7.44462	1258.10758	1036.32091	77.42625	1320.74615	919.24042	122.65921	1349.29569	787.04737	149.43228	1316.60382	783.45181	163.90289	1378.65242	1256.28515	-425.75644	1425.36782	1020.63224	-372.21365	1438.46808	1053.06016	-446.83848	1551.17655	1051.23463	-422.33418	1701.00543	1008.23836	-400.91628	1693.46124	984.81090	-425.31744	1328.75417	876.20139	-51.64087	1320.91586	854.13411	-256.78698	1341.53171	868.28321	-67.98666	1326.43747	863.75854	-230.81221	
122	1.21000000	1471.17593	493.24593	-32.19870	1520.42394	432.78002	-53.78453	1499.54243	91.58711	-73.88713	1437.02044	64.39588	-118.75130	1605.03349	42.58754	-41.25140	1655.74795	74.41191	-93.64956	1241.02049	473.04519	-303.82349	1207.94365	377.42412	-311.89663	964.60652	186.75582	-270.82815	895.12387	198.60525	-215.95855	987.86266	63.01336	-312.64596	1046.52328	57.34611	-267.22070	1515.13001	317.04872	-36.40058	1442.21089	431.26577	-23.97922	1440.24907	318.40855	-28.49042	1148.32095	444.39589	-304.85807	1066.52944	353.21040	-304.37975	1436.50198	814.04572	7.37151	1464.70151	703.27053	-5.04210	1363.38002	669.98768	16.64894	1329.77388	781.84050	29.20318	1419.69475	667.59195	26.69804	1324.39783	728.33970	-350.99779	1309.68342	592.68924	-328.38712	1220.39695	743.36146	-302.05643	1210.90742	604.08542	-285.70972	1422.12196	955.91036	-41.32404	1231.11281	994.38960	-110.06080	1421.84249	919.19630	-286.24110	1221.57241	991.09407	-211.14795	1227.14453	1387.48330	-202.42531	1315.70086	1363.71219	-12.99869	1333.31877	1362.21682	-370.11623	1367.96568	1371.66854	-167.10147	1376.02468	1372.27448	-208.44904	1315.51787	1229.96296	53.12561	1270.63124	1015.86349	8.57049	1272.55623	1036.99225	78.63197	1335.83537	919.96230	123.16481	1364.87689	787.69139	149.32993	1332.50069	784.09882	164.01360	1388.55246	1256.24703	-424.51550	1430.74632	1019.74891	-370.36823	1443.78750	1051.52710	-445.33496	1556.54030	1048.80847	-420.95301	1705.95663	1004.76476	-399.28251	1698.27214	981.39827	-423.66014	1342.25370	877.61150	-49.68701	1334.27248	855.18223	-254.78630	1354.95731	870.21494	-65.79620	1339.60780	864.91240	-228.43688	
123	1.22000000	1480.54181	493.55547	-31.56567	1528.79972	431.89801	-53.25988	1500.18430	91.52877	-74.29974	1437.32124	64.54916	-118.90782	1605.31730	42.32456	-41.25105	1656.30597	73.08116	-94.12819	1263.63923	471.52684	-305.58740	1228.43742	377.20522	-313.74463	979.40345	195.00728	-272.88467	912.69144	212.84736	-217.29245	993.27592	68.86541	-312.68352	1051.53677	59.17547	-267.94885	1521.05228	316.24231	-36.37599	1450.53229	431.98774	-23.62308	1446.25363	319.23630	-28.45653	1171.11768	446.07778	-305.96416	1086.29538	357.71383	-305.39700	1449.34704	814.75839	9.10756	1476.50470	703.66803	-3.29778	1374.51379	671.26805	17.85137	1342.25156	783.56509	30.77744	1430.89465	668.46215	28.03736	1341.19604	728.71489	-350.00411	1329.72903	592.44260	-328.91874	1237.10031	740.84778	-300.39444	1230.82558	601.16881	-285.97954	1435.29035	957.43594	-39.47559	1244.12350	995.55092	-108.46599	1434.62136	920.46989	-284.34282	1234.42575	991.78735	-209.54958	1239.75176	1388.50992	-200.28499	1329.18771	1364.83734	-11.26309	1344.92547	1363.29063	-368.45564	1380.64517	1372.87037	-165.57439	1388.46123	1373.50750	-206.95138	1329.61903	1230.94490	54.64389	1284.89223	1016.88342	9.75954	1287.17815	1037.76274	79.93447	1351.25362	920.80249	123.60087	1380.98160	788.52027	149.08977	1348.89473	784.86115	164.00789	1397.94438	1256.17797	-423.41915	1435.56769	1018.91470	-368.60825	1448.63333	1050.03294	-443.88458	1561.46865	1046.10742	-419.69679	1710.30013	1000.53516	-397.81767	1702.41592	977.27572	-422.18931	1355.44421	879.02645	-47.79803	1347.42516	856.19630	-252.84875	1368.11505	872.05430	-63.51479	1352.51693	865.99938	-226.09953	
124	1.23000000	1489.27359	493.70072	-30.85633	1536.57353	430.92993	-52.53455	1500.64615	91.45350	-74.60978	1437.52102	64.65816	-119.01326	1605.50900	42.16895	-41.17841	1656.68161	72.07938	-94.46679	1286.82559	469.99768	-307.37129	1249.74671	377.11262	-315.62117	995.40840	203.33905	-274.85289	931.91624	226.80329	-218.49172	1000.11838	75.56667	-312.76619	1057.74299	61.89114	-268.78111	1526.41423	315.38563	-36.13521	1458.22434	432.58629	-23.12851	1451.72053	319.96570	-28.30966	1194.71924	447.74810	-307.03499	1107.05797	362.20911	-306.31033	1461.91412	815.23311	10.98610	1488.03512	703.80899	-1.20913	1385.10896	672.50566	18.94569	1354.34912	785.23818	32.19163	1441.50442	669.14939	29.41904	1357.98596	729.06183	-349.28645	1349.98445	592.24841	-329.60857	1253.96983	738.18231	-298.84641	1251.02622	598.17437	-286.42073	1448.23491	958.98420	-37.54150	1256.92634	996.62015	-107.12759	1447.06268	921.66983	-282.53596	1247.06509	992.40736	-208.22029	1252.25028	1389.60517	-198.10445	1342.71179	1366.03859	-9.55974	1356.29667	1364.34001	-366.84215	1393.24845	1374.05577	-164.10090	1400.83292	1374.72934	-205.50782	1343.84653	1232.00270	56.15946	1299.20976	1017.96940	11.01818	1301.97382	1038.60774	81.32892	1366.98983	921.74245	123.97464	1397.59571	789.51737	148.71784	1365.75913	785.71074	163.89165	1406.86901	1256.09575	-422.43074	1439.92314	1018.14978	-366.90700	1453.04643	1048.59299	-442.45808	1565.99610	1043.14800	-418.53854	1714.05166	995.55758	-396.53581	1705.91140	972.45144	-420.91839	1368.34484	880.43962	-45.99579	1360.38059	857.11718	-250.99032	1381.04712	873.75380	-61.18594	1365.18078	866.97381	-223.83692	
125	1.24000000	1497.34041	493.67518	-30.06206	1543.77556	429.90294	-51.67859	1500.98675	91.34955	-74.82851	1437.65662	64.75210	-119.08313	1605.63424	42.05330	-41.04835	1656.94124	71.30912	-94.67355	1310.38269	468.60245	-309.11363	1271.74023	377.20689	-317.43445	1012.50301	211.67558	-276.54628	952.34770	240.02002	-219.42484	1008.86427	83.02677	-312.94598	1065.72506	65.62485	-269.71133	1531.32483	314.49675	-35.72311	1465.36557	433.04684	-22.42277	1456.76068	320.57113	-27.95096	1218.95016	449.45738	-308.03647	1128.67113	366.69797	-307.09207	1474.11365	815.46073	13.00586	1499.22735	703.70438	1.18881	1395.13900	673.68468	19.94343	1365.99545	786.82535	33.44557	1451.50695	669.64921	30.82308	1374.63191	729.42768	-348.83932	1370.26832	592.18123	-330.42894	1270.87532	735.45678	-297.39084	1271.37725	595.22503	-286.90378	1460.94940	960.53835	-35.58410	1269.52064	997.56318	-106.03942	1459.20654	922.74905	-280.85002	1259.48370	992.91994	-207.15223	1264.62659	1390.72764	-195.88513	1356.25897	1367.27932	-7.89845	1367.41224	1365.36292	-365.29727	1405.77835	1375.20713	-162.68654	1413.10815	1375.90915	-204.12798	1358.18074	1233.10681	57.65956	1313.56987	1019.08344	12.35287	1316.94723	1039.49720	82.79716	1383.03338	922.76437	124.29133	1414.67797	790.64955	148.21233	1383.07246	786.62240	163.67275	1415.37757	1256.01064	-421.49767	1443.90952	1017.47146	-365.23772	1457.07866	1047.22786	-441.02214	1570.15158	1039.94672	-417.44957	1717.22296	989.84565	-395.44882	1708.76894	966.93749	-419.85720	1380.97642	881.82477	-44.29652	1373.14468	857.90780	-249.22530	1393.77812	875.28555	-58.86014	1377.61519	867.80661	-221.68028	
